<?xml version="1.0" encoding="UTF-8" standalone="no"?>
<svg
   id="Layer_1"
   version="1.1"
   viewBox="0 0 370.05999 417.45999"
   sodipodi:docname="1225_Arbitrum_Logomark_FullColor_ClearSpace.svg"
   width="370.06"
   height="417.45999"
   inkscape:version="1.4 (86a8ad7, 2024-10-11)"
   xmlns:inkscape="http://www.inkscape.org/namespaces/inkscape"
   xmlns:sodipodi="http://sodipodi.sourceforge.net/DTD/sodipodi-0.dtd"
   xmlns="http://www.w3.org/2000/svg"
   xmlns:svg="http://www.w3.org/2000/svg">
  <sodipodi:namedview
     id="namedview8"
     pagecolor="#505050"
     bordercolor="#eeeeee"
     borderopacity="1"
     inkscape:showpageshadow="0"
     inkscape:pageopacity="0"
     inkscape:pagecheckerboard="0"
     inkscape:deskcolor="#505050"
     inkscape:zoom="1.8602408"
     inkscape:cx="185.72864"
     inkscape:cy="252.11789"
     inkscape:window-width="3200"
     inkscape:window-height="1712"
     inkscape:window-x="3192"
     inkscape:window-y="-8"
     inkscape:window-maximized="1"
     inkscape:current-layer="Layer_1" />
  <!-- Generator: Adobe Illustrator 30.0.0, SVG Export Plug-In . SVG Version: 2.1.1 Build 123)  -->
  <defs
     id="defs1">
    <style
       id="style1">
      .st0 {
        fill: none;
      }

      .st1 {
        fill: #12aaff;
      }

      .st2 {
        fill: #fff;
      }

      .st3 {
        fill: #05163d;
      }

      .st4 {
        fill: #9dcced;
      }

      .st5 {
        clip-path: url(#clippath);
      }
    </style>
    <clipPath
       id="clippath">
      <rect
         class="st0"
         x="185.03999"
         y="185.03999"
         width="370.07001"
         height="417.47"
         id="rect1" />
    </clipPath>
  </defs>
  <g
     class="st5"
     clip-path="url(#clippath)"
     id="g8"
     transform="translate(-185.04,-185.04)">
    <g
       id="g7">
      <path
         class="st3"
         d="m 199.08,311.99 v 163.76 c 0,10.39 5.54,20.09 14.64,25.23 l 141.7,81.83 c 9.01,5.24 20.19,5.24 29.19,0 L 526.4,500.98 c 9.01,-5.24 14.64,-14.84 14.64,-25.23 V 311.99 c 0,-10.39 -5.54,-20.09 -14.64,-25.33 L 384.61,204.83 c -9,-5.24 -20.18,-5.24 -29.19,0 l -141.79,81.83 c -8.91,5.24 -14.55,14.84 -14.55,25.33 z"
         id="path1" />
      <path
         class="st1"
         d="m 401.04,425.58 -20.29,55.41 c -0.59,1.48 -0.59,3.26 0,4.75 l 34.73,95.39 40.27,-23.25 -48.29,-132.39 c -1.09,-2.97 -5.34,-2.97 -6.43,0.1 z"
         id="path2" />
      <path
         class="st1"
         d="m 441.51,332.27 c -1.09,-3.07 -5.34,-3.07 -6.53,0 l -20.28,55.41 c -0.59,1.58 -0.59,3.26 0,4.75 l 57,156.24 40.27,-23.25 -70.45,-193.15 z"
         id="path3" />
      <path
         class="st4"
         d="m 370.07,210.86 c 0.99,0 1.98,0.3 2.87,0.79 l 153.37,88.56 c 1.78,0.99 2.87,2.87 2.87,4.95 v 177.12 c 0,2.08 -1.09,3.96 -2.87,4.95 l -153.37,88.66 c -0.89,0.49 -1.88,0.79 -2.87,0.79 -0.99,0 -1.98,-0.3 -2.87,-0.79 L 213.83,487.33 c -1.78,-0.99 -2.87,-2.87 -2.87,-4.95 V 305.16 c 0,-2.08 1.09,-3.96 2.87,-4.95 L 367.2,211.65 c 0.89,-0.49 1.88,-0.79 2.87,-0.79 z m 0,-25.82 c -5.44,0 -10.98,1.48 -15.83,4.25 l -153.37,88.56 c -9.7,5.64 -15.83,16.03 -15.83,27.31 v 177.12 c 0,11.28 6.04,21.77 15.83,27.41 l 153.37,88.56 c 4.85,2.87 10.29,4.25 15.83,4.25 5.54,0 10.98,-1.48 15.83,-4.25 l 153.37,-88.56 c 9.8,-5.64 15.83,-16.03 15.83,-27.41 V 305.16 c 0,-11.28 -6.04,-21.77 -15.83,-27.41 L 385.9,189.29 c -4.95,-2.77 -10.39,-4.25 -15.83,-4.25 z"
         id="path4" />
      <path
         class="st3"
         d="m 268.64,548.87 14.15,-38.59 28.3,23.55 -26.42,24.24 z"
         id="path5" />
      <path
         class="st2"
         d="m 357.11,292.59 h -38.89 c -2.87,0 -5.54,1.78 -6.53,4.55 l -83.32,228.57 40.27,23.25 91.83,-251.73 c 0.79,-2.28 -0.89,-4.65 -3.37,-4.65 z"
         id="path6" />
      <path
         class="st2"
         d="m 425.18,292.59 h -38.89 c -2.87,0 -5.54,1.78 -6.53,4.55 l -95.09,260.93 40.27,23.25 103.5,-284.08 c 0.89,-2.28 -0.89,-4.65 -3.27,-4.65 z"
         id="path7" />
    </g>
  </g>
</svg>
