<svg height="2500" viewBox="0 0 169.7 199.6" width="2126" xmlns="http://www.w3.org/2000/svg"><g fill="#f0b90b"><path d="m19.1 99.8.1 38.6 32.8 19.3v22.6l-52-30.5v-61.3zm0-38.6v22.5l-19.1-11.3v-22.5l19.1-11.3 19.2 11.3zm46.6-11.3 19.1-11.3 19.2 11.3-19.2 11.3z"/><path d="m32.9 130.4v-22.6l19.1 11.3v22.5zm32.8 35.4 19.1 11.3 19.2-11.3v22.5l-19.2 11.3-19.1-11.3zm65.7-115.9 19.1-11.3 19.2 11.3v22.5l-19.2 11.3v-22.5zm19.1 88.5.1-38.6 19.1-11.3v61.3l-52 30.5v-22.6z"/><path d="m136.8 130.4-19.1 11.2v-22.5l19.1-11.3z"/><path d="m136.8 69.2.1 22.6-32.9 19.3v38.7l-19.1 11.2-19.1-11.2v-38.7l-32.9-19.3v-22.6l19.2-11.3 32.7 19.4 32.9-19.4 19.2 11.3zm-103.9-38.6 51.9-30.6 52 30.6-19.1 11.3-32.9-19.4-32.8 19.4z"/></g></svg>