<svg width="16" height="16" viewBox="0 0 16 16" fill="none" xmlns="http://www.w3.org/2000/svg">
<g clip-path="url(#clip0_4671_4573)">
<path d="M12.9746 5.21719C12.2218 5.21719 11.5463 5.53677 11.0315 6.05249L10.9786 6.02384C10.8606 4.3334 9.59105 3 8 3C6.40895 3 5.13937 4.3334 5.02136 6.02384L4.96846 6.05249C4.45371 5.53677 3.77823 5.21719 3.02543 5.21719C1.35504 5.21719 0 6.68503 0 8.49669C0 10.0615 1.43438 11.4037 1.79044 11.7123C3.4649 13.1559 5.64598 14 8 14C10.354 14 12.5351 13.1559 14.2096 11.7123C14.5676 11.4037 16 10.0637 16 8.49669C16 6.68503 14.645 5.21719 12.9725 5.21719H12.9746Z" fill="#2C2D30" style="fill:#2C2D30;fill:color(display-p3 0.1725 0.1765 0.1882);fill-opacity:1;"/>
</g>
<defs>
<clipPath id="clip0_4671_4573">
<rect width="16" height="16" fill="white" style="fill:white;fill-opacity:1;"/>
</clipPath>
</defs>
</svg>