<svg width="1377" height="163" viewBox="0 0 1377 163" fill="none" xmlns="http://www.w3.org/2000/svg">
<path d="M877.412 39.9832H948.642V50.8632L893.562 114.443H948.642V126.003H877.412V115.293L932.662 51.5432H877.412V39.9832ZM1000.42 75.5132L1041.22 126.003H1024.73L991.746 84.8632L975.596 102.033V126.003H962.846V0.203172H975.596V85.3732L1017.42 39.9832H1033.74L1000.42 75.5132ZM1121 126.003H1047.73V7.00317H1121V19.0732H1060.99V60.5532H1119.3V72.4532H1060.99V113.933H1121V126.003ZM1179.72 111.213L1221.88 7.00317H1235.65L1186.52 126.003H1172.41L1123.28 7.00317H1137.39L1179.72 111.213ZM1364.24 7.00317V126.003H1351.49V27.4032L1309.67 126.003H1298.45L1256.63 27.4032V126.003H1243.88V7.00317H1261.22L1304.4 107.983L1347.41 7.00317H1364.24Z" fill="white"/>
<path d="M66.7669 56.0573L50.0751 46.396L0 75.3768V133.335L50.0751 162.316L100.153 133.335V43.1756L127.972 27.0765L155.794 43.1756V75.3768L127.972 91.4759L111.28 81.8177V107.575L127.972 117.236L178.047 88.2555V30.297L127.972 1.31616L77.8968 30.297V120.457L50.0751 136.556L22.2567 120.457V88.2555L50.0751 72.1564L66.7669 81.8146V56.0573Z" fill="#6600FF"/>
<path fill-rule="evenodd" clip-rule="evenodd" d="M422.293 126.067H444.833V2.51611H422.293V126.067ZM277.389 38.2432C288.072 38.2432 296.929 42.5346 303.933 51.1044C310.951 59.6742 314.447 70.3049 314.447 82.9966C314.447 95.6882 310.938 106.319 303.933 114.889C296.916 123.459 288.072 127.75 277.389 127.75C269.824 127.75 263.25 125.415 257.693 120.732C252.241 115.945 248.236 109.489 245.667 101.362V159.459H223.127V39.9128H245.667V64.6178C248.223 56.4915 252.241 50.087 257.693 45.4173C263.263 40.6302 269.824 38.2432 277.389 38.2432ZM269.198 107.206C275.315 107.206 280.494 104.923 284.72 100.358C288.946 95.6882 291.059 89.8967 291.059 82.9966C291.059 76.0964 288.946 70.5266 284.72 65.9613C280.494 61.2916 275.315 58.9437 269.198 58.9437C262.402 58.9437 256.793 61.2264 252.332 65.7917C247.884 70.3571 245.654 76.0833 245.654 82.9835C245.654 89.8837 247.884 95.6752 252.332 100.345C256.78 104.91 262.402 107.193 269.198 107.193V107.206ZM320.434 82.9966C320.434 95.6882 324.83 106.319 333.621 114.889C342.413 123.459 353.383 127.75 366.518 127.75C379.653 127.75 390.623 123.459 399.414 114.889C408.206 106.319 412.602 95.6882 412.602 82.9966C412.602 70.3049 408.206 59.6742 399.414 51.1044C390.623 42.5346 379.653 38.2432 366.518 38.2432C353.383 38.2432 342.413 42.5346 333.621 51.1044C324.83 59.6742 320.434 70.3049 320.434 82.9966ZM350.317 100.358C345.974 95.6882 343.808 89.8967 343.808 82.9966C343.808 76.0964 345.974 70.5266 350.317 65.9613C354.661 61.2916 360.061 58.9437 366.518 58.9437C372.975 58.9437 378.375 61.2264 382.718 65.7917C387.062 70.3571 389.227 76.0833 389.227 82.9835C389.227 89.8837 387.062 95.6752 382.718 100.345C378.375 104.91 372.975 107.193 366.518 107.193C360.061 107.193 354.661 104.91 350.317 100.345V100.358ZM653.065 114.889C644.273 106.319 639.877 95.6882 639.877 82.9966C639.877 70.3049 644.273 59.6742 653.065 51.1044C661.856 42.5346 672.826 38.2432 685.961 38.2432C699.096 38.2432 710.066 42.5346 718.858 51.1044C727.649 59.6742 732.045 70.3049 732.045 82.9966C732.045 95.6882 727.649 106.319 718.858 114.889C710.066 123.459 699.096 127.75 685.961 127.75C672.826 127.75 661.869 123.459 653.065 114.889ZM663.239 82.9966C663.239 89.8967 665.404 95.6882 669.748 100.358C674.091 104.923 679.491 107.206 685.948 107.206C692.405 107.206 697.805 104.923 702.149 100.358C706.492 95.6882 708.657 89.8967 708.657 82.9966C708.657 76.0964 706.492 70.3571 702.149 65.8048C697.805 61.2394 692.405 58.9568 685.948 58.9568C679.491 58.9568 674.091 61.2916 669.748 65.9744C665.404 70.5397 663.239 76.2138 663.239 83.0096V82.9966ZM792.034 38.2432C801.608 38.2432 809.291 41.5824 815.069 48.2608C820.965 54.9393 823.913 63.4569 823.913 73.8007V126.054H801.373V77.8051C801.373 72.2354 799.599 67.6701 796.025 64.1091C792.464 60.5481 788.016 58.7611 782.668 58.7611C776.655 58.7611 771.763 60.5481 767.981 64.1091C764.198 67.6701 762.307 72.2354 762.307 77.8051V126.054H739.767V39.9128H762.307V61.9568C764.537 54.6132 768.268 48.8217 773.498 44.5955C778.846 40.3693 785.016 38.2562 792.034 38.2562V38.2432ZM498.978 103.097L522.013 39.991H544.892L497.478 159.538H474.599L486.625 129.146L451.394 39.991H475.773L498.978 103.097ZM608.99 39.9128V61.5003C604.294 47.413 592.698 39.9128 577.267 39.9128C553.971 39.9128 540.196 60.2612 540.196 81.653C540.196 103.045 553.866 125.063 577.267 125.063C592.698 125.063 604.294 113.937 608.99 99.8492V116.376C608.99 123.393 606.707 129.172 602.142 133.737C597.576 138.302 592.02 140.585 585.445 140.585C576.537 140.585 569.923 136.137 565.58 127.228L545.375 137.911C549.158 144.929 554.558 150.538 561.575 154.777C568.593 159.003 576.55 161.116 585.445 161.116C598.581 161.116 609.55 156.838 618.342 148.255C627.134 139.685 631.529 129.054 631.529 116.363V39.9128H608.99ZM602.481 98.023C598.137 102.367 592.685 104.532 586.124 104.532C579.563 104.532 574.436 102.367 570.093 98.023C565.749 93.5751 563.584 88.1228 563.584 81.6661C563.584 75.2094 565.749 69.8092 570.093 65.4656C574.436 61.122 579.771 58.9568 586.124 58.9568C592.476 58.9568 598.15 61.122 602.481 65.4656C606.824 69.6918 608.99 75.092 608.99 81.6661C608.99 88.2402 606.824 93.6925 602.481 98.023Z" fill="white"/>
</svg>
