<svg fill="none" height="166" viewBox="0 0 166 166" width="166" xmlns="http://www.w3.org/2000/svg"><path d="m0 0h166v166h-166z" fill="#162f29"/><path d="m133 83.268c0 .5069-.007 1.0139-.022 1.5208h-24.319v-1.108h-23.4067c0-.2318.0073-.4635.0073-.688 0-.2246 0-.4635-.0073-.6881h23.4067v-1.1008h24.298c.029.688.043 1.3761.043 2.0641zm-48.1605-4.9899 22.9075-2.8172.137 1.1008 24.189-2.9765c-.232-1.1878-.507-2.361-.818-3.5125l-23.813 2.9331.138 1.1008-23.0157 2.8317c.1014.449.1955.898.2752 1.3543zm-1.1949-4.4322 21.8934-5.4679.268 1.0719 23.233-5.801c-.478-1.1225-.993-2.2306-1.543-3.3097l-22.552 5.6344.268 1.0719-22.0744 5.5185c.1811.4273.3476.8546.507 1.2891zm-1.941-4.1498 20.4664-7.7274.391 1.0356 21.654-8.1764c-.702-1.0284-1.441-2.0278-2.223-2.9982l-20.698 7.8143.391 1.0356-20.7128 7.8216c.2535.391.4997.7894.7314 1.1949zm-2.6868-3.8383 18.0765-9.4221.5069.9849 19.9888-10.4215c-.92-.8908-1.876-1.7381-2.861-2.5565l-18.7862 9.7915.5069.9849-18.3806 9.5814c.3186.3476.6373.6953.9415 1.0574zm-4.3598-4.1426 16.3673-10.407.5939.9343 18.0618-11.4861c-1.137-.7242-2.296-1.3978-3.491-2.0278l-16.49 10.4866.5939.9343-16.8381 10.7039c.4128.2752.8111.5649 1.2094.8618zm-3.8673-2.4189 13.7167-11.2471.7025.8546 15.4471-12.6738c-1.3104-.4997-2.6575-.9487-4.019-1.3398l-13.7022 11.2399.7025.8545-14.2164 11.66c.4635.2027.9198.42 1.3688.6517zm-5.1202-1.9915 10.8343-10.7837.7749.7822 13.7674-13.6805c-1.4919-.2462-3.0055-.4273-4.5409-.5431l-11.7396 11.6816.775.7822-11.4427 11.3847c.5287.1086 1.0501.2317 1.5716.3766zm-5.9893-.9053 8.6399-10.4722.8546.7025 11.2471-13.6298c-1.7092.0797-3.3966.2462-5.0551.4925l-8.9585 10.856.8545.7025-9.3569 11.3412c.2608-.0072.5287-.0145.7894-.0145.3332 0 .6591.0001.985.0145zm-5.1782.3114 6.6556-10.2984.927.6011 8.046-12.4565c-1.8395.478-3.6355 1.0573-5.3881 1.7308l-5.6634 8.7703.927.6011-7.3726 11.4137c.6156-.1448 1.2385-.268 1.8685-.3694zm-5.7503 1.6005 4.7871-8.973.9705.5214 6.3369-11.8699c-2.0351.9921-3.9905 2.1147-5.8589 3.3603l-3.6429 6.8222.9777.5214-5.6344 10.5591c.6663-.3404 1.3543-.6518 2.0568-.9342zm-4.128 2.1075 2.035-5.7793 1.0429.3694 3.9543-11.2254c-2.0061 1.5933-3.8891 3.3314-5.6345 5.2071l-1.7019 4.8306 1.0429.3693-2.6651 7.5609c.6228-.4708 1.2601-.9126 1.9192-1.3254zm-5.0768 4.1353.8981-4.2005 1.079.2318 1.8106-8.4589c-1.9047 2.4189-3.5921 5.0188-5.0333 7.7636l.8039.1738-1.6513 6.9525c.6446-.8618 1.3471-1.6874 2.093-2.4623zm-3.7297 4.9102v-5.562c-1.347 3.5559-2.303 7.9809-2.8172 12.3189.6301-2.4044 1.586-4.6712 2.8172-6.7569zm-2.781 20.4446c.5287 3.7008 1.4557 7.2712 2.7448 10.668v-4.1066c-1.1877-2.0278-2.122-4.2294-2.7448-6.5614zm4.5916 9.3062 1.4411 6.7208-.8038.174c1.4412 2.752 3.1286 5.345 5.0333 7.763l-1.8106-8.458-1.0791.231-.9125-4.251c-.659-.695-1.2891-1.4193-1.8684-2.187zm5.0188 4.9968 2.6796 7.605-1.0429.369 1.7019 4.831c1.7454 1.875 3.6284 3.613 5.6344 5.207l-3.9542-11.226-1.0429.37-2.0423-5.809c-.659-.42-1.3035-.861-1.9264-1.332zm3.9977 2.513 5.6489 10.588-.9777.522 3.6428 6.822c1.8685 1.246 3.8239 2.368 5.8589 3.36l-6.3369-11.87-.9777.522-4.8016-8.995c-.7025-.282-1.3905-.601-2.064-.941zm5.9458 2.188 7.3798 11.428-.927.601 5.6634 8.77c1.7526.674 3.5486 1.253 5.3881 1.731l-8.046-12.457-.927.601-6.6628-10.312c-.6301-.102-1.2602-.225-1.8758-.37zm5.2723.695 9.3569 11.341-.8546.703 8.9586 10.856c1.6584.246 3.3459.412 5.055.492l-11.2471-13.637-.8546.702-8.6399-10.472c-.3114.015-.63.015-.9487.015-.2752 0-.5576 0-.8328-.015zm6.2065-.536 11.4354 11.377-.7749.782 11.7396 11.682c1.5353-.116 3.049-.297 4.5408-.543l-13.7601-13.688-.7821.79-10.8271-10.777c-.5142.138-1.0429.268-1.5716.377zm5.3303-1.702 14.2019 11.653-.7025.854 13.7022 11.24c1.3615-.391 2.7086-.84 4.0192-1.34l-15.4546-12.674-.7025.855-13.7022-11.24c-.449.232-.9053.449-1.3688.652zm4.0266-2.216 16.8164 10.697-.5939.934 16.4907 10.486c1.195-.63 2.361-1.31 3.49-2.027l-18.0615-11.486-.5939.934-16.3456-10.393c-.3983.297-.7966.587-1.2094.862zm4.635-3.94 18.359 9.567-.507.985 18.7862 9.791c.985-.818 1.941-1.665 2.861-2.556l-19.9887-10.422-.507.985-18.0547-9.407c-.3042.362-.6156.717-.9415 1.057zm2.9041-3.7079 20.6841 7.8139-.391 1.036 20.698 7.814c.775-.97 1.513-1.97 2.223-2.998l-21.654-8.176-.391 1.035-20.4376-7.7199c-.2318.4056-.478.8039-.7315 1.195zm2.1655-4.0556 22.0376 5.504-.268 1.0715 22.552 5.635c.558-1.079 1.072-2.187 1.55-3.31l-23.233-5.8009-.268 1.0719-21.8637-5.4606c-.1593.4345-.3331.8618-.5069 1.2891zm1.4339-4.3743 22.9797 2.8244-.138 1.1008 23.812 2.9331c.312-1.1587.587-2.3319.819-3.5124l-24.189-2.9766-.138 1.1008-22.8705-2.8172c-.0797.4563-.1738.9053-.2752 1.3543z" fill="#fff"/></svg>