<svg fill="none" height="240" viewBox="0 0 240 240" width="240" xmlns="http://www.w3.org/2000/svg"><rect fill="#162f29" height="240" rx="120" width="240"/><path d="m211.875 120.492c0 .932-.013 1.863-.04 2.795h-.106-44.581v-2.036h-43.009c0-.426.013-.852.013-1.264 0-.413 0-.852-.013-1.265h43.009v-2.022h.067 44.58c.053 1.264.08 2.528.08 3.792zm-88.495-9.168 42.092-5.177.253 2.023 44.447-5.47c-.426-2.182-.932-4.338-1.504-6.4539l-43.755 5.3899.253 2.022-42.292 5.204c.187.825.36 1.65.506 2.488zm-2.196-8.145 40.229-10.0469.492 1.9696 42.691-10.6593c-.879-2.0627-1.823-4.0988-2.835-6.0816l-41.439 10.3533.492 1.9695-40.561 10.1404c.333.785.639 1.57.931 2.369zm-3.566-7.6249 37.607-14.1991.719 1.903 39.789-15.0242c-1.291-1.8897-2.648-3.7261-4.085-5.5093l-38.033 14.3588.718 1.903-38.059 14.3721c.466.7186.918 1.4505 1.344 2.1957zm-4.937-7.053 33.215-17.313.932 1.8098 36.729-19.1495c-1.69-1.6368-3.447-3.1938-5.257-4.6975l-34.519 17.9917.931 1.8098-33.774 17.6058c.585.6388 1.171 1.2776 1.73 1.9429zm-8.011-7.6119 30.075-19.1228 1.091 1.7166 33.189-21.1057c-2.089-1.3307-4.219-2.5683-6.414-3.7261l-30.302 19.2693 1.092 1.7167-30.94 19.6684c.758.5057 1.49 1.038 2.222 1.5836zm-7.1065-4.4447 25.2045-20.6665 1.291 1.5703 28.385-23.2882c-2.409-.9182-4.884-1.7432-7.386-2.4618l-25.178 20.6532 1.291 1.5703-26.1226 21.4251c.8517.3726 1.6901.7718 2.5151 1.1976zm-9.4084-3.6595 19.9079-19.8149 1.424 1.4372 25.298-25.1379c-2.742-.4524-5.523-.7851-8.344-.998l-21.572 21.465 1.424 1.4372-21.0256 20.9194c.9715.1996 1.9296.4258 2.8877.692zm-11.0053-1.6635 15.8759-19.2426 1.5703 1.2908 20.667-25.0447c-3.141.1464-6.242.4525-9.289.9049l-16.4615 19.948 1.5703 1.2908-17.1933 20.8395c.4791-.0133.9714-.0266 1.4505-.0266.6122 0 1.211 0 1.8098.0266zm-9.5148.5723 12.2296-18.9233 1.7033 1.1045 14.7847-22.8889c-3.3801.8783-6.6804 1.9429-9.9008 3.1805l-10.4065 16.1154 1.7034 1.1045-13.5471 20.9726c1.1312-.2661 2.2756-.4923 3.4334-.6786zm-10.5662 2.9409 8.7963-16.488 1.7832.9582 11.644-21.811c-3.7394 1.8231-7.3324 3.8858-10.7657 6.1746l-6.6937 12.5357 1.7965.9582-10.3532 19.4023c1.2243-.6255 2.4885-1.1977 3.7793-1.7167zm-7.5853 3.8725 3.7394-10.6194 1.9163.6787 7.2659-20.6266c-3.6861 2.9276-7.1461 6.1214-10.3532 9.5681l-3.1273 8.8761 1.9163.6787-4.8972 13.893c1.1445-.865 2.3156-1.6768 3.5265-2.4353zm-9.3285 7.5986 1.6501-7.7184 1.9828.4259 3.3269-15.5432c-3.4999 4.4447-6.6005 9.2221-9.2487 14.2657l1.4771.3193-3.0341 12.7752c1.1844-1.5836 2.4752-3.1006 3.8459-4.5245zm-6.8534 9.0225v-10.2202c-2.4752 6.534-4.2318 14.6649-5.1766 22.6359 1.1578-4.418 2.9143-8.5832 5.1766-12.4157zm-5.1101 37.5667c.9715 6.8 2.6748 13.361 5.0436 19.602v-7.545c-2.1824-3.726-3.8991-7.772-5.0436-12.057zm8.437 17.1 2.6482 12.35-1.4771.319c2.6481 5.057 5.7488 9.821 9.2487 14.266l-3.3269-15.543-1.9828.426-1.6768-7.812c-1.211-1.277-2.3687-2.608-3.4333-4.019zm9.2221 9.183 4.9238 13.973-1.9163.678 3.1273 8.876c3.2071 3.447 6.667 6.641 10.3532 9.568l-7.2659-20.626-1.9163.678-3.7527-10.672c-1.211-.772-2.3954-1.584-3.5398-2.449zm7.3457 4.617 10.3799 19.456-1.7965.958 6.6936 12.536c3.4334 2.289 7.0264 4.351 10.7658 6.174l-11.644-21.811-1.7966.959-8.8228-16.528c-1.2909-.519-2.5551-1.105-3.7927-1.73zm10.9255 4.019 13.5603 20.999-1.7033 1.105 10.4064 16.115c3.2205 1.238 6.5207 2.303 9.9008 3.181l-14.7846-22.889-1.7034 1.104-12.2429-18.949c-1.1577-.187-2.3155-.413-3.4466-.679zm9.6879 1.278 17.1932 20.839-1.5702 1.291 16.4613 19.948c3.047.453 6.148.759 9.289.905l-20.6669-25.058-1.5703 1.291-15.8758-19.243c-.5722.027-1.1578.027-1.7433.027-.5057 0-1.0247 0-1.5304-.027zm11.4045-.985 21.0128 20.906-1.424 1.437 21.571 21.465c2.821-.213 5.603-.545 8.344-.998l-25.284-25.151-1.437 1.451-19.8951-19.802c-.9448.253-1.9163.492-2.8877.692zm9.7943-3.127 26.0965 21.412-1.291 1.57 25.177 20.653c2.502-.719 4.977-1.544 7.386-2.462l-28.398-23.288-1.291 1.57-25.1777-20.653c-.8251.426-1.6634.825-2.5151 1.198zm7.3985-4.072 30.9 19.655-1.091 1.716 30.301 19.27c2.196-1.158 4.339-2.409 6.415-3.726l-33.189-21.106-1.091 1.717-30.035-19.097c-.732.546-1.464 1.078-2.223 1.584zm8.517-7.24 33.735 17.58-.932 1.809 34.52 17.992c1.81-1.504 3.566-3.061 5.256-4.697l-36.728-19.15-.932 1.81-33.175-17.287c-.559.666-1.132 1.318-1.73 1.943zm5.337-6.813 38.006 14.359-.719 1.903 38.033 14.358c1.424-1.783 2.781-3.619 4.085-5.509l-39.789-15.024-.719 1.903-37.553-14.186c-.426.745-.879 1.477-1.344 2.196zm3.979-7.452 40.494 10.113-.492 1.97 41.439 10.353c1.025-1.983 1.97-4.019 2.848-6.081l-42.69-10.66-.493 1.97-40.175-10.034c-.293.798-.612 1.584-.931 2.369zm2.634-8.038 42.225 5.19-.253 2.023 43.755 5.389c.573-2.129 1.078-4.285 1.504-6.454l-44.447-5.469-.253 2.022-42.025-5.176c-.146.838-.319 1.663-.506 2.488z" fill="#fff"/></svg>
